<?xml version="1.0" encoding="UTF-8" standalone="no"?>
<!DOCTYPE svg PUBLIC "-//W3C//DTD SVG 1.1//EN"
 "http://www.w3.org/Graphics/SVG/1.1/DTD/svg11.dtd">
<!-- Generated by graphviz version 2.38.0 (20140413.2041)
 -->
<!-- Title: G Pages: 1 -->
<svg width="653pt" height="1024pt"
 viewBox="0.00 0.00 653.46 1024.00" xmlns="http://www.w3.org/2000/svg" xmlns:xlink="http://www.w3.org/1999/xlink">
<g id="graph0" class="graph" transform="scale(1 1) rotate(0) translate(4 1020)">
<title>G</title>
<polygon fill="white" stroke="none" points="-4,4 -4,-1020 649.463,-1020 649.463,4 -4,4"/>
<g id="clust1" class="cluster"><title>cluster_Global</title>
<path fill="none" stroke="gray" d="M20,-98C20,-98 625.463,-98 625.463,-98 631.463,-98 637.463,-104 637.463,-110 637.463,-110 637.463,-996 637.463,-996 637.463,-1002 631.463,-1008 625.463,-1008 625.463,-1008 20,-1008 20,-1008 14,-1008 8,-1002 8,-996 8,-996 8,-110 8,-110 8,-104 14,-98 20,-98"/>
<text text-anchor="middle" x="322.732" y="-995.2" font-family="Times,serif" font-size="11.00" fill="gray">\</text>
</g>
<g id="clust2" class="cluster"><title>cluster_\Vipps</title>
<path fill="none" stroke="gray" d="M28,-106C28,-106 617.463,-106 617.463,-106 623.463,-106 629.463,-112 629.463,-118 629.463,-118 629.463,-969 629.463,-969 629.463,-975 623.463,-981 617.463,-981 617.463,-981 28,-981 28,-981 22,-981 16,-975 16,-969 16,-969 16,-118 16,-118 16,-112 22,-106 28,-106"/>
<text text-anchor="middle" x="322.732" y="-968.2" font-family="Times,serif" font-size="11.00" fill="gray">Vipps</text>
</g>
<g id="clust3" class="cluster"><title>cluster_\Vipps\Resources</title>
<path fill="none" stroke="gray" d="M36,-829C36,-829 559.955,-829 559.955,-829 565.955,-829 571.955,-835 571.955,-841 571.955,-841 571.955,-942 571.955,-942 571.955,-948 565.955,-954 559.955,-954 559.955,-954 36,-954 36,-954 30,-954 24,-948 24,-942 24,-942 24,-841 24,-841 24,-835 30,-829 36,-829"/>
<text text-anchor="middle" x="297.978" y="-941.2" font-family="Times,serif" font-size="11.00" fill="gray">Resources</text>
</g>
<g id="clust4" class="cluster"><title>cluster_\Vipps\Connection</title>
<path fill="none" stroke="gray" d="M236.218,-696C236.218,-696 552.551,-696 552.551,-696 558.551,-696 564.551,-702 564.551,-708 564.551,-708 564.551,-809 564.551,-809 564.551,-815 558.551,-821 552.551,-821 552.551,-821 236.218,-821 236.218,-821 230.218,-821 224.218,-815 224.218,-809 224.218,-809 224.218,-708 224.218,-708 224.218,-702 230.218,-696 236.218,-696"/>
<text text-anchor="middle" x="394.385" y="-808.2" font-family="Times,serif" font-size="11.00" fill="gray">Connection</text>
</g>
<g id="clust5" class="cluster"><title>cluster_\Vipps\Exceptions</title>
<path fill="none" stroke="gray" d="M252.721,-293C252.721,-293 609.463,-293 609.463,-293 615.463,-293 621.463,-299 621.463,-305 621.463,-305 621.463,-676 621.463,-676 621.463,-682 615.463,-688 609.463,-688 609.463,-688 252.721,-688 252.721,-688 246.721,-688 240.721,-682 240.721,-676 240.721,-676 240.721,-305 240.721,-305 240.721,-299 246.721,-293 252.721,-293"/>
<text text-anchor="middle" x="431.092" y="-675.2" font-family="Times,serif" font-size="11.00" fill="gray">Exceptions</text>
</g>
<g id="clust6" class="cluster"><title>cluster_\Vipps\Data</title>
<path fill="none" stroke="gray" d="M499.147,-114C499.147,-114 559.955,-114 559.955,-114 565.955,-114 571.955,-120 571.955,-126 571.955,-126 571.955,-173 571.955,-173 571.955,-179 565.955,-185 559.955,-185 559.955,-185 499.147,-185 499.147,-185 493.147,-185 487.147,-179 487.147,-173 487.147,-173 487.147,-126 487.147,-126 487.147,-120 493.147,-114 499.147,-114"/>
<text text-anchor="middle" x="529.551" y="-172.2" font-family="Times,serif" font-size="11.00" fill="gray">Data</text>
</g>
<!-- \\Vipps\\Resources\\AbstractResource -->
<g id="node1" class="node"><title>\\Vipps\\Resources\\AbstractResource</title>
<polygon fill="none" stroke="black" points="363.546,-873 242.311,-873 242.311,-837 363.546,-837 363.546,-873"/>
<text text-anchor="start" x="269.923" y="-857.2" font-family="Courier,monospace" font-size="11.00">«abstract»</text>
<text text-anchor="start" x="250.12" y="-846.2" font-family="Courier,monospace" font-size="11.00">AbstractResource</text>
</g>
<!-- \\Vipps\\Resources\\Payments -->
<g id="node2" class="node"><title>\\Vipps\\Resources\\Payments</title>
<polygon fill="none" stroke="black" points="563.86,-900 495.242,-900 495.242,-864 563.86,-864 563.86,-900"/>
<text text-anchor="middle" x="529.551" y="-878.7" font-family="Courier,monospace" font-size="11.00">Payments</text>
</g>
<!-- \\Vipps\\Resources\\Payments&#45;&gt;\\Vipps\\Resources\\AbstractResource -->
<g id="edge12" class="edge"><title>\\Vipps\\Resources\\Payments&#45;&gt;\\Vipps\\Resources\\AbstractResource</title>
<path fill="none" stroke="black" d="M494.923,-877.958C462.993,-874.12 414.013,-868.232 373.648,-863.38"/>
<polygon fill="none" stroke="black" points="373.934,-859.89 363.588,-862.171 373.098,-866.84 373.934,-859.89"/>
</g>
<!-- \\Vipps\\Resources\\PaymentsInterface -->
<g id="node4" class="node"><title>\\Vipps\\Resources\\PaymentsInterface</title>
<polygon fill="none" stroke="black" points="367.147,-927 238.71,-927 238.71,-891 367.147,-891 367.147,-927"/>
<text text-anchor="middle" x="302.928" y="-905.7" font-family="Courier,monospace" font-size="11.00">PaymentsInterface</text>
</g>
<!-- \\Vipps\\Resources\\Payments&#45;&gt;\\Vipps\\Resources\\PaymentsInterface -->
<g id="edge13" class="edge"><title>\\Vipps\\Resources\\Payments&#45;&gt;\\Vipps\\Resources\\PaymentsInterface</title>
<path fill="none" stroke="black" stroke-dasharray="1,5" d="M494.923,-886.042C463.961,-889.764 416.968,-895.412 377.344,-900.175"/>
<polygon fill="none" stroke="black" points="376.69,-896.729 367.179,-901.397 377.525,-903.679 376.69,-896.729"/>
</g>
<!-- \\Vipps\\Resources\\ResourceInterface -->
<g id="node3" class="node"><title>\\Vipps\\Resources\\ResourceInterface</title>
<polygon fill="none" stroke="black" points="160.328,-927 31.8907,-927 31.8907,-891 160.328,-891 160.328,-927"/>
<text text-anchor="middle" x="96.1091" y="-905.7" font-family="Courier,monospace" font-size="11.00">ResourceInterface</text>
</g>
<!-- \\Vipps\\Resources\\PaymentsInterface&#45;&gt;\\Vipps\\Resources\\ResourceInterface -->
<g id="edge18" class="edge"><title>\\Vipps\\Resources\\PaymentsInterface&#45;&gt;\\Vipps\\Resources\\ResourceInterface</title>
<path fill="none" stroke="black" d="M238.805,-909C217.196,-909 192.836,-909 170.487,-909"/>
<polygon fill="none" stroke="black" points="170.377,-905.5 160.377,-909 170.377,-912.5 170.377,-905.5"/>
</g>
<!-- \\Vipps\\Connection\\Test -->
<g id="node5" class="node"><title>\\Vipps\\Connection\\Test</title>
<polygon fill="none" stroke="black" points="556.551,-794 502.551,-794 502.551,-758 556.551,-758 556.551,-794"/>
<text text-anchor="middle" x="529.551" y="-772.7" font-family="Courier,monospace" font-size="11.00">Test</text>
</g>
<!-- \\Vipps\\Connection\\AbstractConnection -->
<g id="node7" class="node"><title>\\Vipps\\Connection\\AbstractConnection</title>
<polygon fill="none" stroke="black" points="370.248,-740 235.609,-740 235.609,-704 370.248,-704 370.248,-740"/>
<text text-anchor="start" x="269.923" y="-724.2" font-family="Courier,monospace" font-size="11.00">«abstract»</text>
<text text-anchor="start" x="243.519" y="-713.2" font-family="Courier,monospace" font-size="11.00">AbstractConnection</text>
</g>
<!-- \\Vipps\\Connection\\Test&#45;&gt;\\Vipps\\Connection\\AbstractConnection -->
<g id="edge5" class="edge"><title>\\Vipps\\Connection\\Test&#45;&gt;\\Vipps\\Connection\\AbstractConnection</title>
<path fill="none" stroke="black" d="M502.344,-769.7C472.604,-762.55 422.733,-750.561 380.431,-740.391"/>
<polygon fill="none" stroke="black" points="381.238,-736.986 370.697,-738.051 379.602,-743.792 381.238,-736.986"/>
</g>
<!-- \\Vipps\\Connection\\ConnectionInterface -->
<g id="node8" class="node"><title>\\Vipps\\Connection\\ConnectionInterface</title>
<polygon fill="none" stroke="black" points="373.85,-794 232.007,-794 232.007,-758 373.85,-758 373.85,-794"/>
<text text-anchor="middle" x="302.928" y="-772.7" font-family="Courier,monospace" font-size="11.00">ConnectionInterface</text>
</g>
<!-- \\Vipps\\Connection\\Test&#45;&gt;\\Vipps\\Connection\\ConnectionInterface -->
<g id="edge6" class="edge"><title>\\Vipps\\Connection\\Test&#45;&gt;\\Vipps\\Connection\\ConnectionInterface</title>
<path fill="none" stroke="black" stroke-dasharray="1,5" d="M502.344,-776C473.478,-776 425.645,-776 384.178,-776"/>
<polygon fill="none" stroke="black" points="384.065,-772.5 374.064,-776 384.064,-779.5 384.065,-772.5"/>
</g>
<!-- \\Vipps\\Connection\\Live -->
<g id="node6" class="node"><title>\\Vipps\\Connection\\Live</title>
<polygon fill="none" stroke="black" points="556.551,-740 502.551,-740 502.551,-704 556.551,-704 556.551,-740"/>
<text text-anchor="middle" x="529.551" y="-718.7" font-family="Courier,monospace" font-size="11.00">Live</text>
</g>
<!-- \\Vipps\\Connection\\Live&#45;&gt;\\Vipps\\Connection\\AbstractConnection -->
<g id="edge9" class="edge"><title>\\Vipps\\Connection\\Live&#45;&gt;\\Vipps\\Connection\\AbstractConnection</title>
<path fill="none" stroke="black" d="M502.344,-722C472.667,-722 422.943,-722 380.698,-722"/>
<polygon fill="none" stroke="black" points="380.697,-718.5 370.697,-722 380.697,-725.5 380.697,-718.5"/>
</g>
<!-- \\Vipps\\Connection\\Live&#45;&gt;\\Vipps\\Connection\\ConnectionInterface -->
<g id="edge10" class="edge"><title>\\Vipps\\Connection\\Live&#45;&gt;\\Vipps\\Connection\\ConnectionInterface</title>
<path fill="none" stroke="black" stroke-dasharray="1,5" d="M502.344,-728.3C473.417,-735.254 425.443,-746.787 383.915,-756.771"/>
<polygon fill="none" stroke="black" points="382.969,-753.399 374.064,-759.139 384.606,-760.205 382.969,-753.399"/>
</g>
<!-- \\Vipps\\Exceptions\\MerchantException -->
<g id="node9" class="node"><title>\\Vipps\\Exceptions\\MerchantException</title>
<polygon fill="none" stroke="black" points="593.769,-391 465.333,-391 465.333,-355 593.769,-355 593.769,-391"/>
<text text-anchor="middle" x="529.551" y="-369.7" font-family="Courier,monospace" font-size="11.00">MerchantException</text>
</g>
<!-- \\Vipps\\Exceptions\\VippsException -->
<g id="node14" class="node"><title>\\Vipps\\Exceptions\\VippsException</title>
<polygon fill="none" stroke="black" points="357.344,-472 248.513,-472 248.513,-436 357.344,-436 357.344,-472"/>
<text text-anchor="middle" x="302.928" y="-450.7" font-family="Courier,monospace" font-size="11.00">VippsException</text>
</g>
<!-- \\Vipps\\Exceptions\\MerchantException&#45;&gt;\\Vipps\\Exceptions\\VippsException -->
<g id="edge1" class="edge"><title>\\Vipps\\Exceptions\\MerchantException&#45;&gt;\\Vipps\\Exceptions\\VippsException</title>
<path fill="none" stroke="black" d="M470.297,-391.126C461.973,-393.961 453.553,-396.962 445.639,-400 412.946,-412.549 406.388,-419.6 373.639,-432 371.436,-432.834 369.185,-433.663 366.907,-434.483"/>
<polygon fill="none" stroke="black" points="365.712,-431.193 357.425,-437.794 368.02,-437.802 365.712,-431.193"/>
</g>
<!-- \\Vipps\\Exceptions\\ViPPSErrorException -->
<g id="node10" class="node"><title>\\Vipps\\Exceptions\\ViPPSErrorException</title>
<polygon fill="none" stroke="black" points="600.472,-337 458.63,-337 458.63,-301 600.472,-301 600.472,-337"/>
<text text-anchor="middle" x="529.551" y="-315.7" font-family="Courier,monospace" font-size="11.00">ViPPSErrorException</text>
</g>
<!-- \\Vipps\\Exceptions\\ViPPSErrorException&#45;&gt;\\Vipps\\Exceptions\\VippsException -->
<g id="edge3" class="edge"><title>\\Vipps\\Exceptions\\ViPPSErrorException&#45;&gt;\\Vipps\\Exceptions\\VippsException</title>
<path fill="none" stroke="black" d="M461.37,-337.185C455.856,-339.769 450.53,-342.694 445.639,-346 404.336,-373.912 415.068,-404.277 373.639,-432 371.345,-433.535 368.937,-434.968 366.452,-436.305"/>
<polygon fill="none" stroke="black" points="364.691,-433.268 357.179,-440.74 367.711,-439.583 364.691,-433.268"/>
</g>
<!-- \\Vipps\\Exceptions\\InvalidRequestException -->
<g id="node11" class="node"><title>\\Vipps\\Exceptions\\InvalidRequestException</title>
<polygon fill="none" stroke="black" points="613.376,-661 445.726,-661 445.726,-625 613.376,-625 613.376,-661"/>
<text text-anchor="middle" x="529.551" y="-639.7" font-family="Courier,monospace" font-size="11.00">InvalidRequestException</text>
</g>
<!-- \\Vipps\\Exceptions\\InvalidRequestException&#45;&gt;\\Vipps\\Exceptions\\VippsException -->
<g id="edge4" class="edge"><title>\\Vipps\\Exceptions\\InvalidRequestException&#45;&gt;\\Vipps\\Exceptions\\VippsException</title>
<path fill="none" stroke="black" d="M461.872,-624.896C456.191,-622.289 450.692,-619.336 445.639,-616 390.585,-579.658 344.071,-516.399 320.499,-480.63"/>
<polygon fill="none" stroke="black" points="323.386,-478.649 315.01,-472.162 317.513,-482.457 323.386,-478.649"/>
</g>
<!-- \\Vipps\\Exceptions\\CustomerException -->
<g id="node12" class="node"><title>\\Vipps\\Exceptions\\CustomerException</title>
<polygon fill="none" stroke="black" points="593.769,-607 465.333,-607 465.333,-571 593.769,-571 593.769,-607"/>
<text text-anchor="middle" x="529.551" y="-585.7" font-family="Courier,monospace" font-size="11.00">CustomerException</text>
</g>
<!-- \\Vipps\\Exceptions\\CustomerException&#45;&gt;\\Vipps\\Exceptions\\VippsException -->
<g id="edge7" class="edge"><title>\\Vipps\\Exceptions\\CustomerException&#45;&gt;\\Vipps\\Exceptions\\VippsException</title>
<path fill="none" stroke="black" d="M465.157,-570.831C458.434,-568.178 451.806,-565.234 445.639,-562 402.006,-539.117 357.811,-502.901 330.644,-478.802"/>
<polygon fill="none" stroke="black" points="332.894,-476.118 323.114,-472.043 328.218,-481.327 332.894,-476.118"/>
</g>
<!-- \\Vipps\\Exceptions\\AuthenticationException -->
<g id="node13" class="node"><title>\\Vipps\\Exceptions\\AuthenticationException</title>
<polygon fill="none" stroke="black" points="613.376,-553 445.726,-553 445.726,-517 613.376,-517 613.376,-553"/>
<text text-anchor="middle" x="529.551" y="-531.7" font-family="Courier,monospace" font-size="11.00">AuthenticationException</text>
</g>
<!-- \\Vipps\\Exceptions\\AuthenticationException&#45;&gt;\\Vipps\\Exceptions\\VippsException -->
<g id="edge8" class="edge"><title>\\Vipps\\Exceptions\\AuthenticationException&#45;&gt;\\Vipps\\Exceptions\\VippsException</title>
<path fill="none" stroke="black" d="M471.783,-516.925C463.005,-514.011 454.061,-510.974 445.639,-508 416.895,-497.85 385.164,-485.836 359.028,-475.719"/>
<polygon fill="none" stroke="black" points="360.257,-472.442 349.668,-472.085 357.723,-478.967 360.257,-472.442"/>
</g>
<!-- \\Exception -->
<g id="node21" class="node"><title>\\Exception</title>
<ellipse fill="none" stroke="black" cx="96.1091" cy="-72" rx="40.6162" ry="18"/>
<text text-anchor="middle" x="96.1091" y="-67.8" font-family="Times,serif" font-size="14.00" fill="gray">xception</text>
</g>
<!-- \\Vipps\\Exceptions\\VippsException&#45;&gt;\\Exception -->
<g id="edge11" class="edge"><title>\\Vipps\\Exceptions\\VippsException&#45;&gt;\\Exception</title>
<path fill="none" stroke="black" d="M248.603,-446.244C239.656,-442.999 231.069,-438.429 224.218,-432 126.24,-340.057 103.729,-167.993 98.6029,-100.347"/>
<polygon fill="none" stroke="black" points="102.073,-99.7903 97.8984,-90.0526 95.0894,-100.268 102.073,-99.7903"/>
</g>
<!-- \\Vipps\\Exceptions\\ConnectionException -->
<g id="node15" class="node"><title>\\Vipps\\Exceptions\\ConnectionException</title>
<polygon fill="none" stroke="black" points="600.472,-499 458.63,-499 458.63,-463 600.472,-463 600.472,-499"/>
<text text-anchor="middle" x="529.551" y="-477.7" font-family="Courier,monospace" font-size="11.00">ConnectionException</text>
</g>
<!-- \\Vipps\\Exceptions\\ConnectionException&#45;&gt;\\Vipps\\Exceptions\\VippsException -->
<g id="edge16" class="edge"><title>\\Vipps\\Exceptions\\ConnectionException&#45;&gt;\\Vipps\\Exceptions\\VippsException</title>
<path fill="none" stroke="black" d="M458.71,-472.605C429.577,-469.103 395.971,-465.064 367.533,-461.645"/>
<polygon fill="none" stroke="black" points="367.654,-458.135 357.308,-460.416 366.819,-465.085 367.654,-458.135"/>
</g>
<!-- \\Vipps\\Exceptions\\PaymentException -->
<g id="node16" class="node"><title>\\Vipps\\Exceptions\\PaymentException</title>
<polygon fill="none" stroke="black" points="590.169,-445 468.933,-445 468.933,-409 590.169,-409 590.169,-445"/>
<text text-anchor="middle" x="529.551" y="-423.7" font-family="Courier,monospace" font-size="11.00">PaymentException</text>
</g>
<!-- \\Vipps\\Exceptions\\PaymentException&#45;&gt;\\Vipps\\Exceptions\\VippsException -->
<g id="edge17" class="edge"><title>\\Vipps\\Exceptions\\PaymentException&#45;&gt;\\Vipps\\Exceptions\\VippsException</title>
<path fill="none" stroke="black" d="M468.651,-434.2C437.34,-437.964 399.022,-442.57 367.225,-446.392"/>
<polygon fill="none" stroke="black" points="366.659,-442.934 357.148,-447.603 367.494,-449.884 366.659,-442.934"/>
</g>
<!-- \\Vipps\\Data\\DataTime -->
<g id="node17" class="node"><title>\\Vipps\\Data\\DataTime</title>
<polygon fill="none" stroke="black" points="563.86,-158 495.242,-158 495.242,-122 563.86,-122 563.86,-158"/>
<text text-anchor="middle" x="529.551" y="-136.7" font-family="Courier,monospace" font-size="11.00">DataTime</text>
</g>
<!-- \\DateTime -->
<g id="node22" class="node"><title>\\DateTime</title>
<ellipse fill="none" stroke="black" cx="302.928" cy="-72" rx="47.7279" ry="18"/>
<text text-anchor="middle" x="302.928" y="-67.8" font-family="Times,serif" font-size="14.00" fill="gray">\DateTime</text>
</g>
<!-- \\Vipps\\Data\\DataTime&#45;&gt;\\DateTime -->
<g id="edge14" class="edge"><title>\\Vipps\\Data\\DataTime&#45;&gt;\\DateTime</title>
<path fill="none" stroke="black" d="M494.923,-129.82C456.545,-118.202 393.535,-99.1267 350.461,-86.0867"/>
<polygon fill="none" stroke="black" points="351.364,-82.7033 340.779,-83.1556 349.336,-89.403 351.364,-82.7033"/>
</g>
<!-- \\JsonSerializable -->
<g id="node23" class="node"><title>\\JsonSerializable</title>
<ellipse fill="none" stroke="black" cx="302.928" cy="-18" rx="70.0582" ry="18"/>
<text text-anchor="middle" x="302.928" y="-13.8" font-family="Times,serif" font-size="14.00" fill="gray">\JsonSerializable</text>
</g>
<!-- \\Vipps\\Data\\DataTime&#45;&gt;\\JsonSerializable -->
<g id="edge15" class="edge"><title>\\Vipps\\Data\\DataTime&#45;&gt;\\JsonSerializable</title>
<path fill="none" stroke="black" stroke-dasharray="1,5" d="M502.248,-121.832C472.082,-101.486 420.712,-68.3115 373.639,-45 367.544,-41.9816 361.023,-39.0675 354.506,-36.3415"/>
<polygon fill="none" stroke="black" points="355.593,-33.0055 345.01,-32.492 352.963,-39.4927 355.593,-33.0055"/>
</g>
<!-- \\Vipps\\ScriptHandler -->
<g id="node18" class="node"><title>\\Vipps\\ScriptHandler</title>
<polygon fill="none" stroke="black" points="580.365,-229 478.737,-229 478.737,-193 580.365,-193 580.365,-229"/>
<text text-anchor="middle" x="529.551" y="-207.7" font-family="Courier,monospace" font-size="11.00">ScriptHandler</text>
</g>
<!-- \\Vipps\\Vipps -->
<g id="node19" class="node"><title>\\Vipps\\Vipps</title>
<polygon fill="none" stroke="black" points="556.551,-283 502.551,-283 502.551,-247 556.551,-247 556.551,-283"/>
<text text-anchor="middle" x="529.551" y="-261.7" font-family="Courier,monospace" font-size="11.00">Vipps</text>
</g>
<!-- \\Vipps\\VippsInterface -->
<g id="node20" class="node"><title>\\Vipps\\VippsInterface</title>
<polygon fill="none" stroke="black" points="357.344,-283 248.513,-283 248.513,-247 357.344,-247 357.344,-283"/>
<text text-anchor="middle" x="302.928" y="-261.7" font-family="Courier,monospace" font-size="11.00">VippsInterface</text>
</g>
<!-- \\Vipps\\Vipps&#45;&gt;\\Vipps\\VippsInterface -->
<g id="edge2" class="edge"><title>\\Vipps\\Vipps&#45;&gt;\\Vipps\\VippsInterface</title>
<path fill="none" stroke="black" stroke-dasharray="1,5" d="M502.344,-265C469.491,-265 412.07,-265 367.426,-265"/>
<polygon fill="none" stroke="black" points="367.243,-261.5 357.243,-265 367.243,-268.5 367.243,-261.5"/>
</g>
</g>
</svg>
